<?xml version="1.0" encoding="UTF-8"?>
<svg id="Layer_2" data-name="Layer 2" xmlns="http://www.w3.org/2000/svg" viewBox="0 0 58.66 76.85">
  <defs>
    <style>
      .cls-1 {
        fill: #fff;
      }
    </style>
  </defs>
  <g id="Layer_1-2" data-name="Layer 1">
    <g>
      <path class="cls-1" d="M37.23,56.17c-1.65,0-3.27-1.02-4.73-1.94-1.11-.7-2.38-1.5-3.17-1.5s-2.06.8-3.18,1.5c-1.8,1.14-3.84,2.43-5.89,1.76-2.12-.69-3.03-2.98-3.83-5.01-.47-1.19-1-2.53-1.59-2.96-.6-.44-2.06-.53-3.34-.61-2.16-.14-4.6-.29-5.9-2.08-1.29-1.77-.69-4.13-.16-6.21.32-1.26.68-2.69.45-3.41-.22-.66-1.31-1.57-2.28-2.37-1.69-1.4-3.61-2.98-3.61-5.25s1.92-3.85,3.61-5.25c.97-.8,2.06-1.7,2.28-2.37.24-.73-.13-2.15-.45-3.41-.53-2.08-1.13-4.45.16-6.21,1.3-1.78,3.74-1.94,5.9-2.08,1.29-.08,2.74-.18,3.34-.61.59-.43,1.12-1.77,1.59-2.96.8-2.02,1.71-4.32,3.83-5.01,2.05-.66,4.09.63,5.89,1.76,1.12.7,2.38,1.5,3.18,1.5s2.06-.8,3.18-1.5c1.8-1.14,3.84-2.42,5.89-1.76,2.13.69,3.03,2.99,3.83,5.01.47,1.18,1,2.53,1.58,2.95.6.44,2.06.53,3.34.61,2.16.14,4.6.29,5.9,2.08,1.29,1.77.69,4.13.16,6.21-.32,1.26-.68,2.69-.45,3.41.22.66,1.31,1.57,2.28,2.37,1.69,1.4,3.61,2.98,3.61,5.25s-1.92,3.85-3.61,5.25c-.97.8-2.07,1.7-2.28,2.37-.24.73.13,2.16.45,3.42.53,2.08,1.13,4.45-.16,6.21-1.3,1.78-3.75,1.94-5.9,2.08-1.29.08-2.74.18-3.34.61-.58.43-1.11,1.77-1.58,2.95-.8,2.03-1.71,4.32-3.83,5.01-.39.13-.78.18-1.16.18ZM29.33,49.5c1.73,0,3.34,1.02,4.89,2,1.08.68,2.56,1.62,3.18,1.42.68-.22,1.32-1.84,1.83-3.13.66-1.67,1.34-3.4,2.68-4.38,1.36-.99,3.23-1.1,5.03-1.22,1.31-.08,3.1-.2,3.51-.76.4-.55-.04-2.27-.36-3.52-.45-1.77-.91-3.59-.39-5.2.5-1.55,1.92-2.72,3.29-3.85,1.09-.9,2.44-2.02,2.44-2.77s-1.35-1.87-2.44-2.77c-1.37-1.13-2.79-2.3-3.29-3.85-.52-1.61-.06-3.44.39-5.2.32-1.26.76-2.98.36-3.52-.41-.56-2.2-.68-3.5-.76-1.81-.12-3.68-.23-5.03-1.22-1.34-.98-2.02-2.7-2.68-4.38-.51-1.3-1.15-2.91-1.83-3.13-.62-.2-2.09.74-3.17,1.42-1.56.98-3.17,2-4.9,2s-3.34-1.02-4.9-2c-1.08-.68-2.55-1.61-3.18-1.42-.68.22-1.32,1.84-1.83,3.13-.66,1.67-1.34,3.4-2.68,4.38-1.36.99-3.23,1.11-5.03,1.22-1.31.08-3.09.2-3.5.76-.4.55.04,2.27.36,3.53.45,1.76.91,3.59.39,5.2-.5,1.55-1.92,2.72-3.29,3.85-1.09.9-2.44,2.02-2.44,2.77s1.35,1.87,2.44,2.77c1.37,1.13,2.79,2.3,3.29,3.86.52,1.61.06,3.44-.39,5.2-.32,1.26-.76,2.98-.36,3.53.41.56,2.2.67,3.5.76,1.81.12,3.68.23,5.03,1.22,1.34.98,2.02,2.71,2.68,4.38.51,1.3,1.15,2.91,1.83,3.13.6.2,2.09-.74,3.18-1.42,1.56-.98,3.17-2,4.9-2Z"/>
      <path class="cls-1" d="M29.33,46.27c-10.03,0-18.18-8.16-18.18-18.18S19.3,9.9,29.33,9.9s18.18,8.16,18.18,18.18-8.16,18.18-18.18,18.18ZM29.33,13.12c-8.25,0-14.96,6.71-14.96,14.96s6.71,14.96,14.96,14.96,14.96-6.71,14.96-14.96-6.71-14.96-14.96-14.96Z"/>
      <g>
        <path class="cls-1" d="M19.1,76.85c-.63,0-1.2-.36-1.46-.93l-3.85-8.32-8.63,3.1c-.6.22-1.27.06-1.71-.41s-.57-1.14-.32-1.73l9.55-22.88c.34-.82,1.28-1.21,2.11-.86.82.34,1.21,1.28.87,2.11l-8.15,19.51,6.58-2.37c.79-.28,1.66.08,2.01.84l2.94,6.34,8.47-20.24c.34-.82,1.29-1.21,2.11-.86.82.34,1.21,1.29.86,2.11l-9.88,23.61c-.25.59-.82.98-1.46.99h-.03Z"/>
        <path class="cls-1" d="M39.56,76.85h-.03c-.64-.01-1.21-.4-1.46-.99l-9.88-23.61c-.34-.82.04-1.76.86-2.11.82-.35,1.76.04,2.11.86l8.47,20.24,2.94-6.34c.35-.76,1.22-1.11,2.01-.84l6.58,2.37-8.15-19.51c-.34-.82.04-1.76.87-2.11.82-.35,1.76.04,2.11.86l9.55,22.88c.25.59.12,1.27-.32,1.73s-1.11.62-1.71.41l-8.63-3.1-3.85,8.32c-.26.57-.84.93-1.46.93Z"/>
      </g>
      <path class="cls-1" d="M35.13,37.68c-.33,0-.66-.1-.95-.31l-4.86-3.53-4.86,3.53c-.57.41-1.33.41-1.89,0-.56-.41-.8-1.14-.58-1.8l1.86-5.71-4.86-3.53c-.56-.41-.8-1.14-.58-1.8.22-.66.83-1.11,1.53-1.11h6l1.86-5.71c.22-.66.83-1.11,1.53-1.11h0c.7,0,1.32.45,1.53,1.11l1.85,5.71h6c.7,0,1.32.45,1.53,1.11.22.66-.02,1.39-.58,1.8l-4.86,3.53,1.86,5.71c.22.66-.02,1.39-.58,1.8-.28.21-.61.31-.95.31ZM24.9,26.64l1.79,1.3c.56.41.8,1.14.58,1.8l-.68,2.11,1.79-1.3c.57-.41,1.33-.41,1.89,0l1.79,1.3-.68-2.11c-.22-.66.02-1.39.58-1.8l1.79-1.3h-2.22c-.7,0-1.32-.45-1.53-1.11l-.68-2.11-.69,2.11c-.22.66-.83,1.11-1.53,1.11h-2.22Z"/>
    </g>
  </g>
</svg>