<?xml version="1.0" encoding="UTF-8"?>
<svg id="Layer_2" data-name="Layer 2" xmlns="http://www.w3.org/2000/svg" viewBox="0 0 107.96 75.22">
  <defs>
    <style>
      .cls-1 {
        fill: #fff;
      }
    </style>
  </defs>
  <g id="Layer_1-2" data-name="Layer 1">
    <g>
      <path class="cls-1" d="M96.98,62.11H10.37c-.89,0-1.61-.72-1.61-1.61V1.61c0-.89.72-1.61,1.61-1.61h86.6c.89,0,1.61.72,1.61,1.61v58.89c0,.89-.72,1.61-1.61,1.61ZM11.98,58.89h83.39V3.22H11.98v55.67Z"/>
      <path class="cls-1" d="M88.83,54.57H18.52c-.89,0-1.61-.72-1.61-1.61V9.15c0-.89.72-1.61,1.61-1.61h70.3c.89,0,1.61.72,1.61,1.61v43.81c0,.89-.72,1.61-1.61,1.61ZM20.13,51.35h67.08V10.76H20.13v40.59Z"/>
      <path class="cls-1" d="M106.35,75.22H1.61c-.89,0-1.61-.72-1.61-1.61v-13.11c0-.89.72-1.61,1.61-1.61h104.74c.89,0,1.61.72,1.61,1.61v13.11c0,.89-.72,1.61-1.61,1.61ZM3.22,72h101.52v-9.89H3.22v9.89Z"/>
    </g>
  </g>
</svg>