<?xml version="1.0" encoding="UTF-8"?>
<svg id="Layer_2" data-name="Layer 2" xmlns="http://www.w3.org/2000/svg" viewBox="0 0 46.16 73.4">
  <defs>
    <style>
      .cls-1 {
        fill: #fff;
      }
    </style>
  </defs>
  <g id="Layer_1-2" data-name="Layer 1">
    <g>
      <g>
        <path class="cls-1" d="M44.55,73.4H1.61c-.89,0-1.61-.72-1.61-1.61v-14.43c0-.89.72-1.61,1.61-1.61h42.94c.89,0,1.61.72,1.61,1.61v14.43c0,.89-.72,1.61-1.61,1.61ZM3.22,70.18h39.72v-11.21H3.22v11.21Z"/>
        <path class="cls-1" d="M37.42,58.97H8.74c-.89,0-1.61-.72-1.61-1.61v-9.98c0-.89.72-1.61,1.61-1.61h28.67c.89,0,1.61.72,1.61,1.61v9.98c0,.89-.72,1.61-1.61,1.61ZM10.35,55.75h25.45v-6.76H10.35v6.76Z"/>
        <path class="cls-1" d="M28.38,48.3h-10.6c-.89,0-1.61-.72-1.61-1.61v-15.08C8.33,27.04,3.13,15.17,3.13,1.61c0-.89.72-1.61,1.61-1.61h36.67c.89,0,1.61.72,1.61,1.61,0,13.56-5.2,25.43-13.04,30v15.08c0,.89-.72,1.61-1.61,1.61ZM19.39,45.08h7.38v-14.43c0-.61.34-1.17.89-1.44,6.85-3.43,11.72-13.98,12.12-26H6.38c.4,12.02,5.27,22.57,12.12,26,.55.27.89.83.89,1.44v14.43Z"/>
      </g>
      <path class="cls-1" d="M18.57,23.71c-.33,0-.67-.1-.95-.31-.5-.36-.74-.97-.64-1.57l.72-4.19-3.04-2.96c-.44-.43-.6-1.07-.41-1.65.19-.58.69-1.01,1.3-1.09l4.2-.61,1.88-3.81c.27-.55.83-.9,1.44-.9h0c.61,0,1.17.35,1.44.9l1.88,3.81,4.2.61c.61.09,1.11.51,1.3,1.09.19.58.03,1.22-.41,1.65l-3.04,2.96.72,4.19c.1.61-.14,1.21-.64,1.57-.5.36-1.16.41-1.7.12l-3.76-1.97-3.76,1.97c-.23.12-.49.19-.75.19ZM19.24,14.64l1.31,1.28c.38.37.55.9.46,1.43l-.31,1.81,1.62-.85c.47-.25,1.03-.25,1.5,0l1.62.85-.31-1.81c-.09-.52.08-1.06.46-1.43l1.31-1.28-1.81-.26c-.52-.08-.98-.4-1.21-.88l-.81-1.64-.81,1.64c-.23.48-.69.8-1.21.88l-1.81.26Z"/>
    </g>
  </g>
</svg>