<?xml version="1.0" encoding="UTF-8"?>
<svg id="Layer_2" data-name="Layer 2" xmlns="http://www.w3.org/2000/svg" viewBox="0 0 72.38 72.38">
  <defs>
    <style>
      .cls-1 {
        fill: #fff;
      }
    </style>
  </defs>
  <g id="Layer_1-2" data-name="Layer 1">
    <g>
      <path class="cls-1" d="M24.89,60.64c-.41,0-.82-.16-1.14-.47l-11.54-11.54c-.3-.3-.47-.71-.47-1.14s.17-.84.47-1.14L51.04,7.53c.63-.63,1.65-.63,2.28,0l11.54,11.54c.3.3.47.71.47,1.14s-.17.84-.47,1.14L26.03,60.16c-.31.31-.73.47-1.14.47ZM15.63,47.49l9.26,9.26L61.44,20.2l-9.26-9.26L15.63,47.49Z"/>
      <path class="cls-1" d="M64.12,21.41c-.42,0-.83-.17-1.14-.47l-11.54-11.54c-.39-.39-.55-.95-.43-1.49.12-.54.5-.98,1.02-1.16L70.22.1c.59-.22,1.25-.07,1.69.37.44.44.59,1.1.37,1.69l-6.65,18.19c-.19.52-.63.9-1.16,1.02-.12.02-.23.04-.35.04ZM55.51,8.91l7.97,7.97,4.6-12.56-12.56,4.59Z"/>
      <path class="cls-1" d="M11.88,72.38c-.41,0-.82-.16-1.14-.47L.47,61.64c-.63-.63-.63-1.65,0-2.28l12.38-12.38c.63-.63,1.65-.63,2.28,0l10.27,10.27c.63.63.63,1.65,0,2.28l-12.38,12.38c-.31.31-.73.47-1.14.47ZM3.89,60.5l7.99,7.99,10.1-10.1-7.99-7.99-10.1,10.1Z"/>
      <path class="cls-1" d="M19.12,54.87c-.41,0-.82-.16-1.14-.47-.63-.63-.63-1.65,0-2.28L57.21,12.89c.63-.63,1.65-.63,2.28,0,.63.63.63,1.65,0,2.28L20.26,54.4c-.31.31-.73.47-1.14.47Z"/>
      <path class="cls-1" d="M27.53,63.27c-.41,0-.82-.16-1.14-.47l-16.81-16.81c-.63-.63-.63-1.65,0-2.28.63-.63,1.65-.63,2.28,0l16.81,16.81c.63.63.63,1.65,0,2.28-.31.31-.73.47-1.14.47Z"/>
    </g>
  </g>
</svg>