<?xml version="1.0" encoding="UTF-8"?>
<svg id="Layer_2" data-name="Layer 2" xmlns="http://www.w3.org/2000/svg" viewBox="0 0 63.3 78.46">
  <defs>
    <style>
      .cls-1 {
        fill: #fff;
      }
    </style>
  </defs>
  <g id="Layer_1-2" data-name="Layer 1">
    <g>
      <path class="cls-1" d="M9.19,32.08c-.89,0-1.61-.72-1.61-1.61v-4.7c0-.89.72-1.61,1.61-1.61s1.61.72,1.61,1.61v4.7c0,.89-.72,1.61-1.61,1.61Z"/>
      <path class="cls-1" d="M9.19,42.86c-.89,0-1.61-.72-1.61-1.61v-4.3c0-.89.72-1.61,1.61-1.61s1.61.72,1.61,1.61v4.3c0,.89-.72,1.61-1.61,1.61Z"/>
      <path class="cls-1" d="M9.19,54.53c-.89,0-1.61-.72-1.61-1.61v-4.82c0-.89.72-1.61,1.61-1.61s1.61.72,1.61,1.61v4.82c0,.89-.72,1.61-1.61,1.61Z"/>
      <path class="cls-1" d="M61.69,78.46H9.19c-.89,0-1.61-.72-1.61-1.61v-17.61c0-.89.72-1.61,1.61-1.61s1.61.72,1.61,1.61v16h49.29V3.22H10.8v15.66c0,.89-.72,1.61-1.61,1.61s-1.61-.72-1.61-1.61V1.61c0-.89.72-1.61,1.61-1.61h52.51c.89,0,1.61.72,1.61,1.61v75.24c0,.89-.72,1.61-1.61,1.61Z"/>
      <path class="cls-1" d="M48.89,35.25h-26.74c-.89,0-1.61-.72-1.61-1.61V15.16c0-.89.72-1.61,1.61-1.61h26.74c.89,0,1.61.72,1.61,1.61v18.48c0,.89-.72,1.61-1.61,1.61ZM23.76,32.03h23.52v-15.25h-23.52v15.25Z"/>
      <g>
        <path class="cls-1" d="M14.31,26.74H1.61c-.89,0-1.61-.72-1.61-1.61v-5.35c0-.89.72-1.61,1.61-1.61h12.7c.89,0,1.61.72,1.61,1.61v5.35c0,.89-.72,1.61-1.61,1.61ZM3.22,23.52h9.48v-2.13H3.22v2.13Z"/>
        <path class="cls-1" d="M14.31,37.92H1.61c-.89,0-1.61-.72-1.61-1.61v-5.35c0-.89.72-1.61,1.61-1.61h12.7c.89,0,1.61.72,1.61,1.61v5.35c0,.89-.72,1.61-1.61,1.61ZM3.22,34.7h9.48v-2.13H3.22v2.13Z"/>
        <path class="cls-1" d="M14.31,49.11H1.61c-.89,0-1.61-.72-1.61-1.61v-5.35c0-.89.72-1.61,1.61-1.61h12.7c.89,0,1.61.72,1.61,1.61v5.35c0,.89-.72,1.61-1.61,1.61ZM3.22,45.88h9.48v-2.13H3.22v2.13Z"/>
        <path class="cls-1" d="M14.31,60.29H1.61c-.89,0-1.61-.72-1.61-1.61v-5.35c0-.89.72-1.61,1.61-1.61h12.7c.89,0,1.61.72,1.61,1.61v5.35c0,.89-.72,1.61-1.61,1.61ZM3.22,57.06h9.48v-2.13H3.22v2.13Z"/>
      </g>
    </g>
  </g>
</svg>