<?xml version="1.0" encoding="UTF-8"?>
<svg id="Layer_2" data-name="Layer 2" xmlns="http://www.w3.org/2000/svg" viewBox="0 0 72.4 74.39">
  <defs>
    <style>
      .cls-1 {
        fill: #fff;
      }
    </style>
  </defs>
  <g id="Layer_1-2" data-name="Layer 1">
    <g>
      <path class="cls-1" d="M23.45,40.56c-4.38,0-8.76-1.67-12.1-5-6.67-6.67-6.68-17.53,0-24.2,3.23-3.23,7.53-5.01,12.1-5.01s8.87,1.78,12.1,5.01h0c3.23,3.23,5.01,7.53,5.01,12.1,0,4.57-1.78,8.87-5.02,12.1-3.33,3.33-7.72,5-12.1,5ZM23.45,9.56c-3.71,0-7.2,1.45-9.83,4.07-2.62,2.62-4.07,6.11-4.06,9.82,0,3.71,1.45,7.2,4.07,9.82,5.41,5.41,14.22,5.41,19.64,0,2.62-2.62,4.07-6.11,4.07-9.82,0-3.71-1.44-7.2-4.06-9.82h0c-2.62-2.62-6.11-4.07-9.83-4.07Z"/>
      <path class="cls-1" d="M23.45,40.56c-4.38,0-8.76-1.67-12.1-5-6.67-6.67-6.68-17.53,0-24.2,3.23-3.23,7.53-5.01,12.1-5.01s8.87,1.78,12.1,5.01h0c3.23,3.23,5.01,7.53,5.01,12.1,0,4.57-1.78,8.87-5.02,12.1-3.33,3.33-7.72,5-12.1,5ZM23.45,9.56c-3.71,0-7.2,1.45-9.83,4.07-2.62,2.62-4.07,6.11-4.06,9.82,0,3.71,1.45,7.2,4.07,9.82,5.41,5.41,14.22,5.41,19.64,0,2.62-2.62,4.07-6.11,4.07-9.82,0-3.71-1.44-7.2-4.06-9.82h0c-2.62-2.62-6.11-4.07-9.83-4.07Z"/>
      <path class="cls-1" d="M62.67,74.39c-2.49,0-4.98-.95-6.88-2.85l-9.11-9.11c-2.52-2.51-3.44-6.16-2.48-9.53l-9.08-9.08c-9.08,5.22-20.76,3.72-28.25-3.76C-2.29,30.9-2.29,16.02,6.86,6.87,11.29,2.44,17.18,0,23.45,0s12.16,2.44,16.59,6.87h0c8.06,8.06,9.12,20.68,2.72,29.92l9.16,9.16c3.07-.53,6.28.48,8.52,2.72l9.11,9.11c1.84,1.84,2.85,4.28,2.85,6.88,0,2.6-1.01,5.04-2.85,6.89-1.9,1.9-4.39,2.85-6.88,2.85ZM35.35,40.17c.42,0,.83.16,1.14.47l10.69,10.69c.46.46.6,1.15.35,1.75-.99,2.44-.44,5.22,1.42,7.08l9.11,9.11c2.46,2.46,6.76,2.46,9.21,0,1.23-1.23,1.91-2.87,1.91-4.61s-.68-3.37-1.91-4.6l-9.11-9.11c-1.65-1.66-4.12-2.3-6.32-1.68-.56.16-1.16,0-1.58-.41l-10.77-10.77c-.58-.58-.63-1.5-.13-2.13,6.33-8.03,5.63-19.55-1.62-26.8h0c-3.82-3.82-8.91-5.93-14.31-5.93s-10.49,2.11-14.31,5.93c-7.89,7.89-7.89,20.73,0,28.62,6.73,6.73,17.38,7.84,25.33,2.66.27-.18.57-.26.88-.26ZM23.45,40.56c-4.38,0-8.76-1.67-12.1-5h0c-6.67-6.67-6.68-17.53,0-24.2,3.23-3.23,7.53-5.01,12.1-5.01s8.87,1.78,12.1,5.01c3.23,3.23,5.01,7.53,5.01,12.1,0,4.57-1.78,8.87-5.02,12.1-3.33,3.33-7.72,5-12.1,5ZM13.63,33.28c5.41,5.42,14.22,5.41,19.64,0,2.62-2.62,4.07-6.11,4.07-9.82,0-3.71-1.44-7.2-4.06-9.82-2.62-2.62-6.11-4.07-9.83-4.07s-7.2,1.45-9.83,4.07c-5.41,5.41-5.41,14.23,0,19.64h0Z"/>
    </g>
  </g>
</svg>