<?xml version="1.0" encoding="UTF-8"?>
<svg id="Layer_2" data-name="Layer 2" xmlns="http://www.w3.org/2000/svg" viewBox="0 0 94.16 78.7">
  <defs>
    <style>
      .cls-1 {
        fill: #fff;
      }
    </style>
  </defs>
  <g id="Layer_1-2" data-name="Layer 1">
    <g>
      <path class="cls-1" d="M60.08,59.01c-.43,0-.84-.17-1.14-.47l-26.75-26.76c-.63-.63-.63-1.65,0-2.28L58.95,2.75c.63-.63,1.65-.63,2.28,0l26.75,26.75c.63.63.63,1.65,0,2.28l-26.75,26.76c-.3.3-.71.47-1.14.47ZM35.61,30.64l24.48,24.48,24.48-24.48L60.08,6.16l-24.48,24.48Z"/>
      <path class="cls-1" d="M65.79,78.7c-.42,0-.83-.17-1.14-.47l-26.75-26.75c-.3-.3-.47-.71-.47-1.14s.17-.84.47-1.14l6.61-6.61c.63-.63,1.65-.63,2.28,0,.63.63.63,1.65,0,2.28l-5.47,5.47,23.55,23.55,4.29-18.97c.14-.61.61-1.08,1.22-1.22l18.97-4.29-10.26-10.26c-.63-.63-.63-1.65,0-2.28.63-.63,1.65-.63,2.28,0l12.32,12.32c.41.41.57,1.02.41,1.59-.16.56-.62.99-1.19,1.12l-20.83,4.71-4.71,20.83c-.13.57-.56,1.03-1.12,1.19-.15.04-.3.06-.45.06Z"/>
      <g>
        <path class="cls-1" d="M65.28,10.22c-.41,0-.82-.16-1.14-.47-.63-.63-.63-1.65,0-2.28l3.37-3.37c.14-.14.16-.3.16-.38s-.02-.24-.16-.38c-.27-.27-.48-.28-.76,0l-3.37,3.37c-.63.63-1.65.63-2.28,0-.63-.63-.63-1.65,0-2.28l3.37-3.37c1.42-1.42,3.89-1.42,5.31,0,.71.71,1.1,1.65,1.1,2.66s-.39,1.95-1.1,2.66l-3.37,3.37c-.31.31-.73.47-1.14.47Z"/>
        <path class="cls-1" d="M3.75,70.85c-.96,0-1.92-.36-2.66-1.1-1.46-1.47-1.46-3.85,0-5.31L34.11,31.42c.63-.63,1.65-.63,2.28,0,.63.63.63,1.65,0,2.28L3.37,66.72c-.21.21-.21.55,0,.76.14.14.3.16.38.16h0c.08,0,.24-.02.38-.16l33.01-33.02c.63-.63,1.65-.63,2.28,0,.63.63.63,1.65,0,2.28L6.41,69.75c-.73.73-1.7,1.1-2.66,1.1Z"/>
      </g>
      <path class="cls-1" d="M60.06,38.96c-.08,0-.17,0-.25-.02-.61-.1-1.1-.53-1.29-1.11l-1.33-4.29-4.29-1.33c-.59-.18-1.02-.68-1.11-1.28-.1-.61.16-1.21.66-1.57l3.67-2.6-.06-4.49c0-.61.33-1.18.88-1.46.54-.28,1.2-.22,1.69.15l3.6,2.69,4.26-1.44c.58-.2,1.22-.05,1.66.39.43.43.58,1.08.39,1.66l-1.44,4.25,2.69,3.6c.37.49.42,1.15.14,1.69-.28.55-.87.92-1.46.88l-4.49-.06-2.6,3.67c-.3.43-.8.68-1.31.68ZM56.97,30.1l1.98.62c.51.16.9.55,1.06,1.06l.62,1.98,1.2-1.7c.31-.43.78-.65,1.33-.68l2.08.03-1.24-1.66c-.32-.43-.41-.98-.23-1.48l.67-1.97-1.97.67c-.5.17-1.06.08-1.48-.23l-1.66-1.24.03,2.08c0,.53-.25,1.03-.68,1.33l-1.7,1.2Z"/>
    </g>
  </g>
</svg>