<?xml version="1.0" encoding="UTF-8"?>
<svg id="Layer_2" data-name="Layer 2" xmlns="http://www.w3.org/2000/svg" viewBox="0 0 80.76 92.98">
  <defs>
    <style>
      .cls-1 {
        fill: #fff;
      }
    </style>
  </defs>
  <g id="Layer_1-2" data-name="Layer 1">
    <g>
      <path class="cls-1" d="M52.51,76.85h-24.28c-.89,0-1.61-.72-1.61-1.61v-8.16c0-3.26-1.37-6.38-3.85-8.79-5.08-4.93-7.87-11.81-7.67-18.88.36-12.93,10.75-23.7,23.65-24.51,7.08-.46,13.8,1.97,18.95,6.8,5.07,4.76,7.98,11.48,7.98,18.44s-2.82,13.57-7.94,18.4c-2.29,2.16-3.61,5.28-3.61,8.55v8.16c0,.89-.72,1.61-1.61,1.61ZM29.84,73.63h21.06v-6.55c0-4.16,1.68-8.13,4.62-10.9,4.47-4.22,6.93-9.92,6.93-16.06s-2.47-11.87-6.97-16.09c-4.49-4.21-10.37-6.32-16.54-5.93-11.25.71-20.32,10.11-20.63,21.39-.17,6.17,2.27,12.18,6.7,16.48,3.12,3.02,4.83,6.97,4.83,11.1v6.55Z"/>
      <path class="cls-1" d="M52.01,85.22h-23.27c-.89,0-1.61-.72-1.61-1.61v-3.78c0-.89.72-1.61,1.61-1.61h23.27c.89,0,1.61.72,1.61,1.61v3.78c0,.89-.72,1.61-1.61,1.61ZM30.35,82h20.05v-.56h-20.05v.56Z"/>
      <path class="cls-1" d="M47.86,92.98h-14.97c-.89,0-1.61-.72-1.61-1.61v-3.78c0-.89.72-1.61,1.61-1.61h14.97c.89,0,1.61.72,1.61,1.61v3.78c0,.89-.72,1.61-1.61,1.61ZM34.5,89.76h11.75v-.56h-11.75v.56Z"/>
      <g>
        <path class="cls-1" d="M39.74,10.16c-.89,0-1.61-.72-1.61-1.61V1.61c0-.89.72-1.61,1.61-1.61s1.61.72,1.61,1.61v6.94c0,.89-.72,1.61-1.61,1.61Z"/>
        <g>
          <path class="cls-1" d="M62.44,19.05c-.41,0-.82-.16-1.14-.47-.63-.63-.63-1.65,0-2.28l4.91-4.91c.63-.63,1.65-.63,2.28,0,.63.63.63,1.65,0,2.28l-4.91,4.91c-.31.31-.73.47-1.14.47Z"/>
          <path class="cls-1" d="M79.15,41.39h-6.94c-.89,0-1.61-.72-1.61-1.61s.72-1.61,1.61-1.61h6.94c.89,0,1.61.72,1.61,1.61s-.72,1.61-1.61,1.61Z"/>
        </g>
        <g>
          <path class="cls-1" d="M18.32,19.05c-.41,0-.82-.16-1.14-.47l-4.91-4.91c-.63-.63-.63-1.65,0-2.28.63-.63,1.65-.63,2.28,0l4.91,4.91c.63.63.63,1.65,0,2.28-.31.31-.73.47-1.14.47Z"/>
          <path class="cls-1" d="M8.55,41.39H1.61c-.89,0-1.61-.72-1.61-1.61s.72-1.61,1.61-1.61h6.94c.89,0,1.61.72,1.61,1.61s-.72,1.61-1.61,1.61Z"/>
        </g>
      </g>
    </g>
  </g>
</svg>