<?xml version="1.0" encoding="UTF-8"?>
<svg id="Layer_2" data-name="Layer 2" xmlns="http://www.w3.org/2000/svg" viewBox="0 0 49.91 61.73">
  <defs>
    <style>
      .cls-1 {
        fill: #fff;
      }
    </style>
  </defs>
  <g id="Layer_1-2" data-name="Layer 1">
    <g>
      <path class="cls-1" d="M7.15,61.73c-2.27,0-4.12-1.85-4.12-4.12v-19.18h-1.42c-.89,0-1.61-.72-1.61-1.61v-18.89c0-.89.72-1.61,1.61-1.61h12.35c.89,0,1.61.72,1.61,1.61v18.89c0,.89-.72,1.61-1.61,1.61h-2.69v19.18c0,2.27-1.85,4.12-4.12,4.12ZM3.22,35.2h1.42c.89,0,1.61.72,1.61,1.61v20.79c0,.51.4.9.9.9s.9-.4.9-.9v-20.79c0-.89.72-1.61,1.61-1.61h2.69v-15.66H3.22v15.66Z"/>
      <path class="cls-1" d="M41.86,53.12c-.24,0-.48-.06-.71-.17l-27.9-13.65c-.55-.27-.9-.83-.9-1.45v-20.96c0-.62.35-1.18.9-1.45L41.15,1.79c.5-.24,1.09-.22,1.56.08.47.29.76.81.76,1.37v48.27c0,.56-.29,1.07-.76,1.37-.26.16-.56.24-.85.24ZM15.57,36.85l24.68,12.08V5.82l-24.68,12.08v18.95Z"/>
      <path class="cls-1" d="M45.08,54.74c-2.66,0-4.83-2.17-4.83-4.83V4.83c0-2.66,2.17-4.83,4.83-4.83s4.83,2.17,4.83,4.83v45.08c0,2.66-2.17,4.83-4.83,4.83ZM45.08,3.22c-.89,0-1.61.72-1.61,1.61v45.08c0,.89.72,1.61,1.61,1.61s1.61-.72,1.61-1.61V4.83c0-.89-.72-1.61-1.61-1.61Z"/>
    </g>
  </g>
</svg>