<?xml version="1.0" encoding="UTF-8"?>
<svg id="Layer_2" data-name="Layer 2" xmlns="http://www.w3.org/2000/svg" viewBox="0 0 49.45 76.53">
  <defs>
    <style>
      .cls-1 {
        fill: #fff;
      }
    </style>
  </defs>
  <g id="Layer_1-2" data-name="Layer 1">
    <g>
      <path class="cls-1" d="M26.43,62.88c-.83,0-1.87-.13-3.08-.39-3.96-.85-7.53-3.09-10.05-6.3-.87-1.1-1.6-2.31-2.18-3.59L.63,29.49c-.67-1.25-.82-2.8-.38-4.25.44-1.45,1.43-2.65,2.77-3.36.82-.44,1.75-.67,2.67-.67,2.11,0,4.04,1.16,5.03,3.02l2.83,5.31V5.81C13.55,2.76,15.88.21,18.86.01c1.63-.1,3.25.49,4.42,1.65,1.08,1.08,1.67,2.51,1.67,4.03v8.24c1.99-.85,4.71-.55,6.4.88.48.4.87.87,1.16,1.39,2.09-1.19,5.14-.99,7.01.58.36.3.67.65.93,1.02,2.05-1.3,5.28-1.21,7.24.44,1.14.96,1.77,2.26,1.77,3.66v17.94c0,.63-.02,1.25-.08,1.87-.19,2.4-.76,4.74-1.68,6.96-3.58,8.63-11.93,14.2-21.27,14.2ZM5.7,24.42c-.4,0-.8.1-1.16.29-.58.31-1.01.83-1.2,1.46-.19.63-.13,1.3.18,1.89l10.54,23.2c.47,1.05,1.07,2.03,1.78,2.93,2.06,2.63,4.96,4.45,8.19,5.14.98.21,1.81.32,2.41.32,8.04,0,15.22-4.79,18.29-12.22.79-1.91,1.28-3.92,1.44-5.98.04-.53.07-1.07.07-1.61v-17.94c0-.59-.39-1-.62-1.2-.47-.4-1.15-.63-1.85-.63-1.34,0-2.47.84-2.47,1.83,0,.89-.72,1.61-1.61,1.61s-1.61-.72-1.61-1.61v-1.46c0-.59-.39-1-.62-1.2-1.17-.98-3.57-.64-4.18.6-.09.19-.14.4-.14.61,0,.89-.72,1.61-1.61,1.61s-1.61-.72-1.61-1.61v-1.98c0-.59-.39-1-.62-1.2-.47-.4-1.15-.63-1.85-.63-1.34,0-2.47.83-2.47,1.82,0,.89-.72,1.61-1.61,1.61s-1.61-.72-1.61-1.61V5.69c0-.66-.26-1.28-.73-1.75-.51-.51-1.2-.75-1.92-.71-1.29.09-2.3,1.22-2.3,2.59v28.03c0,.99-.67,1.84-1.62,2.08-.96.23-1.95-.21-2.41-1.08l-4.85-9.11c-.43-.81-1.27-1.31-2.19-1.31Z"/>
      <path class="cls-1" d="M47.77,43.2s-.07,0-.1,0c-.87-.05-1.54-.8-1.51-1.67l.07-1.73c.03-.88.84-1.49,1.64-1.54.88.02,1.58.73,1.58,1.61,0,.63-.02,1.25-.08,1.87-.07.84-.77,1.48-1.6,1.48Z"/>
      <path class="cls-1" d="M31.5,22.06c-.89,0-1.61-.72-1.61-1.61v-1.4c0-.5.23-.96.62-1.27.39-.31.9-.41,1.38-.29l.36.1c.46.13.84.46,1.03.9.19.44.18.94-.03,1.36-.1.2-.15.4-.15.61,0,.89-.72,1.61-1.61,1.61Z"/>
      <path class="cls-1" d="M23.33,30.82c-.89,0-1.61-.72-1.61-1.61v-10.74c0-.89.72-1.61,1.61-1.61s1.61.72,1.61,1.61v10.74c0,.89-.72,1.61-1.61,1.61Z"/>
      <path class="cls-1" d="M31.5,34.19c-.89,0-1.61-.72-1.61-1.61v-14.11c0-.89.72-1.61,1.61-1.61s1.61.72,1.61,1.61v14.11c0,.89-.72,1.61-1.61,1.61Z"/>
      <path class="cls-1" d="M39.67,36.84c-.89,0-1.61-.72-1.61-1.61v-14.11c0-.89.72-1.61,1.61-1.61s1.61.72,1.61,1.61v14.11c0,.89-.72,1.61-1.61,1.61Z"/>
      <path class="cls-1" d="M30.46,76.53c-9.65,0-17.51-7.85-17.51-17.5v-3.83c0-.69.44-1.3,1.09-1.52.65-.22,1.37,0,1.79.53,2.05,2.62,4.96,4.45,8.19,5.14.98.21,1.81.32,2.41.32,8.04,0,15.22-4.79,18.29-12.22.25-.6.84-.99,1.49-.99.89,0,1.75.72,1.75,1.61v10.96c0,9.65-7.85,17.5-17.5,17.5ZM16.18,59.09c.04,7.85,6.43,14.22,14.29,14.22s14.28-6.41,14.28-14.28v-5.2c-4.28,5.63-10.99,9.06-18.32,9.06-.83,0-1.87-.13-3.08-.39-2.63-.56-5.08-1.73-7.17-3.4Z"/>
    </g>
  </g>
</svg>