<?xml version="1.0" encoding="UTF-8"?>
<svg id="Layer_2" data-name="Layer 2" xmlns="http://www.w3.org/2000/svg" viewBox="0 0 71.79 71.79">
  <defs>
    <style>
      .cls-1 {
        fill: #fff;
      }
    </style>
  </defs>
  <g id="Layer_1-2" data-name="Layer 1">
    <g>
      <path class="cls-1" d="M11.95,71.79c-.89,0-1.61-.72-1.61-1.61V1.61c0-.89.72-1.61,1.61-1.61s1.61.72,1.61,1.61v68.57c0,.89-.72,1.61-1.61,1.61Z"/>
      <path class="cls-1" d="M70.18,65.05H1.61c-.89,0-1.61-.72-1.61-1.61s.72-1.61,1.61-1.61h68.57c.89,0,1.61.72,1.61,1.61s-.72,1.61-1.61,1.61Z"/>
      <path class="cls-1" d="M27.53,48.55c-2.87,0-5.21-2.34-5.21-5.21s2.34-5.21,5.21-5.21,5.21,2.34,5.21,5.21-2.34,5.21-5.21,5.21ZM27.53,41.34c-1.1,0-1.99.89-1.99,1.99s.89,1.99,1.99,1.99,1.99-.89,1.99-1.99-.89-1.99-1.99-1.99Z"/>
      <path class="cls-1" d="M47.17,44.95c-2.87,0-5.21-2.34-5.21-5.21s2.34-5.21,5.21-5.21,5.21,2.34,5.21,5.21-2.34,5.21-5.21,5.21ZM47.17,37.74c-1.1,0-1.99.89-1.99,1.99s.89,1.99,1.99,1.99,1.99-.89,1.99-1.99-.89-1.99-1.99-1.99Z"/>
      <path class="cls-1" d="M62.27,27.32c-2.87,0-5.21-2.34-5.21-5.21s2.34-5.21,5.21-5.21,5.21,2.34,5.21,5.21-2.34,5.21-5.21,5.21ZM62.27,20.11c-1.1,0-1.99.89-1.99,1.99s.89,1.99,1.99,1.99,1.99-.89,1.99-1.99-.89-1.99-1.99-1.99Z"/>
      <path class="cls-1" d="M11.95,65.67c-.32,0-.65-.1-.93-.3-.73-.51-.9-1.52-.39-2.24l12.93-18.3c.51-.73,1.52-.9,2.24-.38.73.51.9,1.52.39,2.24l-12.93,18.3c-.31.44-.81.68-1.32.68Z"/>
      <path class="cls-1" d="M30.54,42.98c-.86,0-1.57-.68-1.61-1.54-.04-.89.65-1.64,1.54-1.68l13.02-.55c.92-.02,1.64.65,1.68,1.54.04.89-.65,1.64-1.54,1.68l-13.02.55s-.05,0-.07,0Z"/>
      <path class="cls-1" d="M49.7,38.78c-.36,0-.72-.12-1.03-.37-.68-.57-.78-1.58-.21-2.27l10.22-12.35c.57-.69,1.58-.78,2.27-.22.68.57.78,1.58.21,2.27l-10.22,12.35c-.32.38-.78.58-1.24.58Z"/>
    </g>
  </g>
</svg>