<?xml version="1.0" encoding="UTF-8"?>
<svg id="Layer_2" data-name="Layer 2" xmlns="http://www.w3.org/2000/svg" viewBox="0 0 78.93 71.83">
  <defs>
    <style>
      .cls-1 {
        fill: #fff;
      }
    </style>
  </defs>
  <g id="Layer_1-2" data-name="Layer 1">
    <g>
      <g>
        <path class="cls-1" d="M17.92,63.6c-.41,0-.82-.16-1.14-.47l-8.08-8.08c-.3-.3-.47-.71-.47-1.14s.17-.84.47-1.14l27.19-27.19c.63-.63,1.65-.63,2.28,0l8.08,8.08c.63.63.63,1.65,0,2.28l-27.19,27.19c-.31.31-.73.47-1.14.47ZM12.11,53.91l5.8,5.8,24.92-24.92-5.8-5.8-24.92,24.92Z"/>
        <path class="cls-1" d="M45.39,36.12c-.42,0-.83-.17-1.14-.47l-8.08-8.08c-.39-.39-.55-.95-.43-1.49.12-.54.5-.98,1.02-1.16l12.74-4.66c.59-.22,1.25-.07,1.69.37.44.44.59,1.1.37,1.69l-4.66,12.74c-.19.52-.63.9-1.16,1.02-.12.02-.23.04-.35.04ZM40.23,27.08l4.51,4.51,2.6-7.12-7.11,2.6Z"/>
        <path class="cls-1" d="M8.8,71.83c-.41,0-.82-.16-1.14-.47l-7.19-7.19c-.3-.3-.47-.71-.47-1.14s.17-.84.47-1.14l8.67-8.67c.3-.3.71-.47,1.14-.47h0c.43,0,.84.17,1.14.47l7.19,7.19c.63.63.63,1.65,0,2.28l-8.67,8.67c-.31.31-.73.47-1.14.47ZM3.89,63.02l4.92,4.92,6.39-6.39-4.92-4.92-6.39,6.39Z"/>
        <path class="cls-1" d="M13.88,59.56c-.41,0-.82-.16-1.14-.47-.63-.63-.63-1.65,0-2.28l27.48-27.48c.63-.63,1.65-.63,2.28,0,.63.63.63,1.65,0,2.28l-27.48,27.48c-.31.31-.73.47-1.14.47Z"/>
        <path class="cls-1" d="M19.76,65.44c-.41,0-.82-.16-1.14-.47l-11.78-11.77c-.63-.63-.63-1.65,0-2.28.63-.63,1.65-.63,2.28,0l11.78,11.77c.63.63.63,1.65,0,2.28-.31.31-.73.47-1.14.47Z"/>
      </g>
      <path class="cls-1" d="M77.32,63.42H27.47c-.89,0-1.61-.72-1.61-1.61s.72-1.61,1.61-1.61h48.24V3.22H18.73v33.78c0,.89-.72,1.61-1.61,1.61s-1.61-.72-1.61-1.61V1.61c0-.89.72-1.61,1.61-1.61h60.2c.89,0,1.61.72,1.61,1.61v60.2c0,.89-.72,1.61-1.61,1.61Z"/>
    </g>
  </g>
</svg>