<?xml version="1.0" encoding="UTF-8"?>
<svg id="Layer_2" data-name="Layer 2" xmlns="http://www.w3.org/2000/svg" viewBox="0 0 2408.53 581.32">
  <defs>
    <style>
      .cls-1 {
        fill: #fff;
      }

      .cls-2 {
        font-family: Sora-Medium, Sora;
        font-size: 145.82px;
        font-weight: 500;
        letter-spacing: .09em;
      }
    </style>
  </defs>
  <g id="Capa_1" data-name="Capa 1">
    <g>
      <text class="cls-2" transform="translate(618.05 538.89)"><tspan x="0" y="0">CASH MANAGEMENT</tspan></text>
      <g>
        <g>
          <rect x="4.5" y="4.49" width="1404.46" height="358.76"/>
          <path d="M1413.45,367.75H0V0h1413.45v367.75ZM8.99,358.75h1395.46V8.99H8.99v349.76Z"/>
        </g>
        <g>
          <g>
            <path class="cls-1" d="M104.47,307V39.8h50.19v267.2h-50.19ZM147.44,183.87v-31.41h56.33c12.28,0,21.3-3.25,27.08-9.75,5.78-6.5,8.67-15.17,8.67-26s-2.89-19.5-8.67-26c-5.78-6.5-14.8-9.75-27.08-9.75h-56.33v-41.16h51.64c29.84,0,52.54,6.26,68.06,18.78,15.53,12.52,23.29,30.46,23.29,53.8v5.05c0,16.37-3.91,29.43-11.73,39.18-7.83,9.75-18.6,16.73-32.32,20.94-13.72,4.21-29.49,6.32-47.3,6.32h-51.64ZM147.44,307v-41.16h66.08c12.04,0,21.18-3.31,27.44-9.93,6.26-6.62,9.39-15.71,9.39-27.26s-3.13-20.52-9.39-26.9c-6.26-6.37-15.41-9.57-27.44-9.57h-66.08v-31.42h62.47c17.57,0,33.27,2.11,47.12,6.32,13.84,4.21,24.67,11.25,32.5,21.12,7.82,9.87,11.74,23.11,11.74,39.72v5.05c0,15.65-3.43,28.95-10.29,39.9-6.86,10.96-17.1,19.38-30.69,25.28-13.6,5.9-30.39,8.85-50.37,8.85h-62.47Z"/>
            <path class="cls-1" d="M381.78,305.2V41.6h51.27v263.59h-51.27ZM425.83,305.2v-45.13h113.74v45.13h-113.74Z"/>
            <path class="cls-1" d="M584.34,305.2l89.91-263.59h83.77l92.44,263.59h-52.72l-78.36-228.57,18.42,7.94h-45.13l18.77-7.94-75.83,228.57h-51.27ZM647.17,235.15l16.25-43.33h106.88l15.89,43.33h-139.02Z"/>
            <path class="cls-1" d="M1037.14,312.06c-23.83,0-44.29-4.21-61.38-12.64-17.1-8.42-31-19.37-41.7-32.86-10.71-13.48-18.6-28.16-23.65-44.05-5.06-15.89-7.58-31.17-7.58-45.86v-7.94c0-16.36,2.58-32.5,7.76-48.38,5.17-15.89,13.18-30.33,24.01-43.33,10.83-13,24.61-23.41,41.34-31.23,16.73-7.82,36.53-11.74,59.4-11.74s44.59,4.28,62.29,12.82c17.69,8.55,31.83,20.58,42.43,36.11,10.59,15.52,16.97,33.64,19.14,54.34h-51.64c-1.93-12.04-6.2-22.21-12.82-30.51-6.62-8.31-14.98-14.56-25.1-18.78-10.11-4.21-21.55-6.32-34.3-6.32s-24.55,2.23-34.66,6.68c-10.11,4.45-18.54,10.77-25.28,18.95-6.74,8.19-11.86,17.82-15.35,28.89-3.49,11.07-5.24,23.35-5.24,36.83s1.74,25.04,5.24,36.11c3.49,11.07,8.72,20.76,15.71,29.07,6.98,8.31,15.58,14.75,25.82,19.32,10.23,4.58,22.08,6.86,35.57,6.86,19.74,0,36.41-4.88,50.01-14.63,13.6-9.75,21.85-23.41,24.73-40.98h51.64c-2.41,18.78-8.79,35.99-19.14,51.64-10.35,15.65-24.55,28.16-42.61,37.55-18.05,9.39-39.6,14.08-64.63,14.08Z"/>
          </g>
          <path class="cls-1" d="M1337.54,317.41l-96.41-123.13h-37.19l114.46-140.46h58.86l-103.27,126.38-1.44-25.27,127.46,162.49h-62.47Z"/>
          <g>
            <path d="M1458.18,319.22V52.02h50.19v267.2h-50.19ZM1501.14,196.09v-31.42h56.33c12.28,0,21.3-3.25,27.08-9.75,5.78-6.5,8.67-15.17,8.67-26s-2.89-19.5-8.67-26c-5.78-6.5-14.8-9.75-27.08-9.75h-56.33v-41.16h51.64c29.84,0,52.54,6.26,68.06,18.78,15.53,12.52,23.29,30.45,23.29,53.8v5.05c0,16.38-3.91,29.43-11.73,39.18-7.83,9.75-18.6,16.73-32.32,20.94-13.72,4.21-29.49,6.32-47.3,6.32h-51.64ZM1501.14,319.22v-41.16h66.08c12.04,0,21.18-3.3,27.44-9.93,6.26-6.62,9.39-15.71,9.39-27.26s-3.13-20.52-9.39-26.9c-6.26-6.37-15.41-9.57-27.44-9.57h-66.08v-31.41h62.47c17.57,0,33.27,2.11,47.12,6.32,13.84,4.22,24.67,11.26,32.5,21.13,7.82,9.87,11.74,23.11,11.74,39.72v5.05c0,15.65-3.43,28.95-10.29,39.9-6.86,10.96-17.1,19.38-30.69,25.28-13.6,5.9-30.39,8.85-50.37,8.85h-62.47Z"/>
            <path d="M1736.2,317.41V53.82h51.27v263.59h-51.27Z"/>
            <path d="M1882.08,317.41V52.02h51.27v265.39h-51.27ZM1918.19,229.31v-41.52h67.16c9.39,0,17.51-1.92,24.37-5.78,6.86-3.85,12.21-9.26,16.07-16.25,3.85-6.98,5.78-14.93,5.78-23.83s-1.93-17.2-5.78-24.19c-3.85-6.98-9.21-12.4-16.07-16.25-6.86-3.85-14.99-5.78-24.37-5.78h-67.16v-43.69h61.75c21.18,0,39.54,3.13,55.07,9.39,15.53,6.26,27.5,15.77,35.93,28.53,8.42,12.76,12.64,28.77,12.64,48.02v5.78c0,19.5-4.28,35.51-12.82,48.02-8.55,12.52-20.52,21.91-35.93,28.17-15.41,6.26-33.7,9.39-54.88,9.39h-61.75ZM2043.12,317.41l-80.88-114.83h57.41l83.41,114.83h-59.94Z"/>
            <path d="M2170.94,318.85V52.02h51.27v266.84h-51.27ZM2214.99,318.85v-47.66h54.52c13.72,0,25.94-2.11,36.65-6.32,10.71-4.21,19.8-10.17,27.26-17.87,7.46-7.7,13.18-16.79,17.15-27.26,3.97-10.47,5.96-22.08,5.96-34.85s-1.98-25.1-5.96-35.57c-3.97-10.47-9.69-19.44-17.15-26.9-7.46-7.46-16.55-13.12-27.26-16.97-10.71-3.84-22.93-5.78-36.65-5.78h-54.52v-47.66h51.27c23.83,0,44.65,3.49,62.47,10.47,17.81,6.99,32.62,16.55,44.41,28.71,11.79,12.16,20.64,26,26.54,41.52,5.9,15.52,8.85,31.59,8.85,48.21v7.94c0,15.89-2.95,31.54-8.85,46.94-5.9,15.41-14.75,29.37-26.54,41.89-11.8,12.52-26.6,22.51-44.41,29.97-17.82,7.46-38.64,11.19-62.47,11.19h-51.27Z"/>
          </g>
        </g>
      </g>
    </g>
  </g>
</svg>