<?xml version="1.0" encoding="UTF-8"?>
<svg id="Layer_2" data-name="Layer 2" xmlns="http://www.w3.org/2000/svg" viewBox="0 0 1962.24 261.41">
  <defs>
    <style>
      .cls-1 {
        fill: #231f20;
      }

      .cls-2 {
        fill: #fff;
      }
    </style>
  </defs>
  <g id="Capa_1" data-name="Capa 1">
    <g>
      <g>
        <g>
          <path class="cls-2" d="M331.27,216.63V27.49h35.53v189.14h-35.53ZM361.69,129.47v-22.24h39.87c8.69,0,15.08-2.3,19.17-6.9,4.09-4.6,6.14-10.74,6.14-18.4s-2.05-13.8-6.14-18.4c-4.09-4.6-10.48-6.9-19.17-6.9h-39.87v-29.14h36.55c21.13,0,37.19,4.43,48.18,13.29,10.99,8.86,16.49,21.56,16.49,38.09v3.58c0,11.59-2.77,20.83-8.31,27.73-5.54,6.9-13.16,11.85-22.88,14.82-9.71,2.98-20.88,4.47-33.48,4.47h-36.55ZM361.69,216.63v-29.14h46.77c8.52,0,14.99-2.34,19.43-7.03,4.43-4.68,6.65-11.12,6.65-19.3s-2.22-14.53-6.65-19.04c-4.43-4.51-10.91-6.77-19.43-6.77h-46.77v-22.24h44.22c12.44,0,23.55,1.5,33.36,4.47,9.8,2.98,17.46,7.97,23,14.95,5.54,6.99,8.31,16.36,8.31,28.12v3.58c0,11.08-2.43,20.49-7.28,28.24-4.86,7.75-12.1,13.72-21.73,17.89-9.63,4.18-21.51,6.26-35.66,6.26h-44.22Z"/>
          <path class="cls-2" d="M527.57,215.35V28.77h36.29v186.59h-36.29ZM558.75,215.35v-31.95h80.51v31.95h-80.51Z"/>
          <path class="cls-2" d="M670.96,215.35l63.64-186.59h59.3l65.43,186.59h-37.32l-55.47-161.79,13.04,5.62h-31.95l13.29-5.62-53.68,161.79h-36.3ZM715.43,165.77l11.5-30.67h75.66l11.25,30.67h-98.41Z"/>
          <path class="cls-2" d="M991.48,220.21c-16.87,0-31.35-2.98-43.45-8.95-12.1-5.96-21.94-13.71-29.52-23.26-7.58-9.54-13.16-19.94-16.74-31.18-3.58-11.25-5.37-22.07-5.37-32.46v-5.62c0-11.58,1.83-23,5.49-34.25,3.66-11.25,9.33-21.47,17-30.67,7.67-9.2,17.42-16.57,29.27-22.11,11.84-5.54,25.86-8.31,42.05-8.31s31.57,3.03,44.09,9.07c12.53,6.05,22.53,14.57,30.03,25.56,7.5,10.99,12.01,23.81,13.55,38.47h-36.55c-1.37-8.52-4.39-15.72-9.07-21.6-4.69-5.88-10.61-10.31-17.76-13.29-7.16-2.98-15.25-4.47-24.28-4.47s-17.38,1.58-24.54,4.73c-7.16,3.15-13.12,7.63-17.89,13.42-4.77,5.8-8.39,12.61-10.86,20.45-2.47,7.84-3.71,16.53-3.71,26.07s1.23,17.73,3.71,25.56c2.47,7.84,6.17,14.7,11.12,20.57,4.94,5.88,11.03,10.44,18.28,13.67,7.24,3.24,15.63,4.86,25.18,4.86,13.97,0,25.77-3.45,35.4-10.35,9.62-6.9,15.46-16.57,17.51-29.01h36.55c-1.7,13.29-6.22,25.48-13.55,36.55-7.33,11.08-17.38,19.94-30.16,26.58-12.78,6.64-28.03,9.97-45.75,9.97Z"/>
        </g>
        <path class="cls-2" d="M1204.12,224l-68.24-87.16h-26.33l81.03-99.43h41.66l-73.1,89.46-1.02-17.89,90.23,115.02h-44.22Z"/>
        <g>
          <path class="cls-2" d="M1289.51,225.28V36.14h35.53v189.14h-35.53ZM1319.93,138.12v-22.24h39.87c8.69,0,15.08-2.3,19.17-6.9,4.09-4.6,6.14-10.74,6.14-18.4s-2.05-13.8-6.14-18.4c-4.09-4.6-10.48-6.9-19.17-6.9h-39.87v-29.14h36.55c21.13,0,37.19,4.43,48.18,13.29,10.99,8.86,16.49,21.56,16.49,38.08v3.58c0,11.59-2.77,20.83-8.31,27.73-5.54,6.9-13.16,11.85-22.88,14.83-9.71,2.98-20.88,4.47-33.48,4.47h-36.55ZM1319.93,225.28v-29.14h46.77c8.52,0,14.99-2.34,19.43-7.03,4.43-4.68,6.65-11.12,6.65-19.3s-2.22-14.53-6.65-19.04c-4.43-4.51-10.91-6.77-19.43-6.77h-46.77v-22.24h44.22c12.44,0,23.55,1.49,33.36,4.47,9.8,2.99,17.46,7.97,23,14.95,5.54,6.99,8.31,16.36,8.31,28.12v3.58c0,11.08-2.43,20.49-7.28,28.24-4.86,7.76-12.1,13.72-21.73,17.89-9.63,4.18-21.51,6.26-35.66,6.26h-44.22Z"/>
          <path class="cls-2" d="M1486.32,224V37.41h36.3v186.59h-36.3Z"/>
          <path class="cls-2" d="M1589.58,224V36.14h36.29v187.86h-36.29ZM1615.14,161.63v-29.39h47.54c6.65,0,12.4-1.36,17.25-4.09,4.86-2.72,8.65-6.56,11.37-11.5,2.72-4.94,4.09-10.57,4.09-16.87s-1.37-12.18-4.09-17.12c-2.73-4.94-6.52-8.78-11.37-11.5-4.86-2.72-10.61-4.09-17.25-4.09h-47.54v-30.93h43.71c14.99,0,27.99,2.22,38.98,6.64,10.99,4.43,19.46,11.16,25.43,20.19,5.96,9.03,8.95,20.36,8.95,33.99v4.09c0,13.8-3.03,25.14-9.07,33.99-6.05,8.86-14.53,15.51-25.43,19.94-10.91,4.43-23.86,6.64-38.85,6.64h-43.71ZM1703.57,224l-57.25-81.28h40.64l59.04,81.28h-42.43Z"/>
          <path class="cls-2" d="M1794.05,225.02V36.14h36.29v188.89h-36.29ZM1825.24,225.02v-33.74h38.59c9.71,0,18.36-1.49,25.94-4.47,7.58-2.98,14.01-7.2,19.3-12.65,5.28-5.45,9.33-11.89,12.14-19.3,2.81-7.41,4.22-15.63,4.22-24.67s-1.41-17.76-4.22-25.18c-2.81-7.41-6.86-13.76-12.14-19.04-5.28-5.28-11.72-9.28-19.3-12.01-7.58-2.72-16.23-4.09-25.94-4.09h-38.59v-33.74h36.29c16.87,0,31.61,2.47,44.22,7.41,12.61,4.94,23.09,11.72,31.44,20.32,8.35,8.61,14.61,18.4,18.79,29.39,4.17,10.99,6.26,22.36,6.26,34.12v5.62c0,11.25-2.09,22.32-6.26,33.23-4.18,10.91-10.44,20.79-18.79,29.65-8.35,8.86-18.83,15.93-31.44,21.21-12.61,5.28-27.35,7.92-44.22,7.92h-36.29Z"/>
        </g>
      </g>
      <rect class="cls-2" width="261.41" height="261.41" rx="6.56" ry="6.56"/>
      <path class="cls-1" d="M155.88,224l-68.24-87.16h-26.33l81.03-99.43h41.66l-73.1,89.46-1.02-17.89,90.23,115.02h-44.22Z"/>
    </g>
  </g>
</svg>