<?xml version="1.0" encoding="UTF-8"?>
<svg id="Layer_2" data-name="Layer 2" xmlns="http://www.w3.org/2000/svg" viewBox="0 0 73.39 74.2">
  <defs>
    <style>
      .cls-1 {
        fill: #231f20;
      }
    </style>
  </defs>
  <g id="Layer_1-2" data-name="Layer 1">
    <g>
      <g>
        <path class="cls-1" d="M36.7,18.32c-5.05,0-9.16-4.11-9.16-9.16S31.65,0,36.7,0s9.16,4.11,9.16,9.16-4.11,9.16-9.16,9.16ZM36.7,3.22c-3.27,0-5.94,2.66-5.94,5.94s2.66,5.94,5.94,5.94,5.94-2.66,5.94-5.94-2.66-5.94-5.94-5.94Z"/>
        <path class="cls-1" d="M49.4,39.85h-25.4c-.89,0-1.61-.72-1.61-1.61v-5.66c0-7.05,5.04-12.99,11.99-14.12.48-.08.97.07,1.34.39.36.33.56.8.53,1.29l-.62,10.37,1.07.84,1.07-.84-.62-10.37c-.03-.49.17-.96.53-1.29.36-.33.85-.47,1.34-.39,2.96.48,5.66,1.86,7.8,3.99,2.7,2.71,4.19,6.31,4.19,10.13v5.66c0,.89-.72,1.61-1.61,1.61ZM25.6,36.63h22.18v-4.05c0-2.96-1.15-5.75-3.25-7.85-1.16-1.16-2.53-2.03-4.04-2.57l.54,9.01c.03.53-.2,1.04-.61,1.36l-2.73,2.14c-.58.46-1.41.46-1.99,0l-2.73-2.14c-.42-.33-.64-.83-.61-1.36l.54-9.02c-4.33,1.55-7.29,5.66-7.29,10.43v4.05Z"/>
      </g>
      <path class="cls-1" d="M67.69,74.2H5.7c-.89,0-1.61-.72-1.61-1.61v-29.65c0-.89.72-1.61,1.61-1.61h61.99c.89,0,1.61.72,1.61,1.61v29.65c0,.89-.72,1.61-1.61,1.61ZM7.31,70.98h58.77v-26.43H7.31v26.43Z"/>
      <path class="cls-1" d="M71.78,44.55H1.61c-.89,0-1.61-.72-1.61-1.61v-4.7c0-.89.72-1.61,1.61-1.61h70.17c.89,0,1.61.72,1.61,1.61v4.7c0,.89-.72,1.61-1.61,1.61ZM3.22,41.32h66.95v-1.48H3.22v1.48Z"/>
    </g>
  </g>
</svg>