<?xml version="1.0" encoding="UTF-8"?>
<svg id="Layer_2" data-name="Layer 2" xmlns="http://www.w3.org/2000/svg" viewBox="0 0 83.73 84.72">
  <defs>
    <style>
      .cls-1 {
        fill: #231f20;
      }
    </style>
  </defs>
  <g id="Layer_1-2" data-name="Layer 1">
    <g>
      <path class="cls-1" d="M82.11,84.72H1.61c-.89,0-1.61-.72-1.61-1.61v-50.72c0-.89.72-1.61,1.61-1.61.35,0,.83.12,1.11.33l39.21,30.05,39.21-30.05c.49-.37,1.14-.44,1.69-.17.55.27.9.83.9,1.44v50.72c0,.89-.72,1.61-1.61,1.61ZM3.22,81.5h77.28v-45.84l-37.6,28.82c-.58.44-1.38.44-1.96,0L3.22,35.56v45.94Z"/>
      <path class="cls-1" d="M41.92,64.8c-.35,0-.69-.11-.98-.33L.76,33.67c-.4-.3-.63-.78-.63-1.28s.23-.97.63-1.28L40.94.33c.58-.44,1.38-.44,1.96,0l40.19,30.78c.4.3.63.78.63,1.28s-.23.97-.63,1.28l-40.19,30.8c-.29.22-.63.33-.98.33ZM4.39,32.39l37.54,28.77,37.54-28.77L41.92,3.64,4.39,32.39Z"/>
      <path class="cls-1" d="M1.62,84.72c-.41,0-.82-.16-1.14-.47-.63-.63-.63-1.65,0-2.28l28.82-28.82c.63-.63,1.65-.63,2.28,0,.63.63.63,1.65,0,2.28L2.76,84.25c-.31.31-.73.47-1.14.47Z"/>
      <path class="cls-1" d="M82.12,84.72c-.41,0-.82-.16-1.14-.47l-28.7-28.7c-.63-.63-.63-1.65,0-2.28.63-.63,1.65-.63,2.28,0l28.7,28.7c.63.63.63,1.65,0,2.28-.31.31-.73.47-1.14.47Z"/>
    </g>
  </g>
</svg>