<?xml version="1.0" encoding="UTF-8"?>
<svg id="Layer_2" data-name="Layer 2" xmlns="http://www.w3.org/2000/svg" viewBox="0 0 92.2 73.79">
  <defs>
    <style>
      .cls-1 {
        fill: #231f20;
      }
    </style>
  </defs>
  <g id="Layer_1-2" data-name="Layer 1">
    <g>
      <path class="cls-1" d="M36.9,73.79C16.55,73.79,0,57.24,0,36.9S16.55,0,36.9,0s36.9,16.55,36.9,36.9-16.55,36.9-36.9,36.9ZM36.9,3.22C18.33,3.22,3.22,18.33,3.22,36.9s15.11,33.68,33.68,33.68,33.68-15.11,33.68-33.68S55.47,3.22,36.9,3.22Z"/>
      <path class="cls-1" d="M36.9,62.39c-14.06,0-25.49-11.44-25.49-25.49s11.43-25.49,25.49-25.49,25.49,11.44,25.49,25.49-11.44,25.49-25.49,25.49ZM36.9,14.63c-12.28,0-22.27,9.99-22.27,22.27s9.99,22.27,22.27,22.27,22.27-9.99,22.27-22.27-9.99-22.27-22.27-22.27Z"/>
      <path class="cls-1" d="M36.9,52.19c-8.43,0-15.3-6.86-15.3-15.3s6.86-15.3,15.3-15.3,15.3,6.86,15.3,15.3-6.86,15.3-15.3,15.3ZM36.9,24.82c-6.66,0-12.08,5.42-12.08,12.07s5.42,12.07,12.08,12.07,12.08-5.42,12.08-12.07-5.42-12.07-12.08-12.07Z"/>
      <path class="cls-1" d="M89.62,38.51h-52.73c-.89,0-1.61-.72-1.61-1.61s.72-1.61,1.61-1.61h52.73c.89,0,1.61.72,1.61,1.61s-.72,1.61-1.61,1.61Z"/>
      <g>
        <path class="cls-1" d="M77.01,38.51c-.41,0-.82-.16-1.14-.47-.63-.63-.63-1.65,0-2.28l6.22-6.22c.63-.63,1.65-.63,2.28,0,.63.63.63,1.65,0,2.28l-6.22,6.22c-.31.31-.73.47-1.14.47Z"/>
        <path class="cls-1" d="M83.31,44.8c-.41,0-.82-.16-1.14-.47l-6.3-6.3c-.63-.63-.63-1.65,0-2.28.63-.63,1.65-.63,2.28,0l6.3,6.3c.63.63.63,1.65,0,2.28-.31.31-.73.47-1.14.47Z"/>
      </g>
      <g>
        <path class="cls-1" d="M84.29,38.51c-.41,0-.82-.16-1.14-.47-.63-.63-.63-1.65,0-2.28l6.22-6.22c.63-.63,1.65-.63,2.28,0,.63.63.63,1.65,0,2.28l-6.22,6.22c-.31.31-.73.47-1.14.47Z"/>
        <path class="cls-1" d="M90.59,44.8c-.41,0-.82-.16-1.14-.47l-6.3-6.3c-.63-.63-.63-1.65,0-2.28.63-.63,1.65-.63,2.28,0l6.3,6.3c.63.63.63,1.65,0,2.28-.31.31-.73.47-1.14.47Z"/>
      </g>
    </g>
  </g>
</svg>