<?xml version="1.0" encoding="UTF-8"?>
<svg id="Layer_2" data-name="Layer 2" xmlns="http://www.w3.org/2000/svg" viewBox="0 0 67.48 64.46">
  <defs>
    <style>
      .cls-1 {
        fill: #231f20;
      }
    </style>
  </defs>
  <g id="Layer_1-2" data-name="Layer 1">
    <g>
      <g>
        <path class="cls-1" d="M33.74,64.46c-.68,0-1.3-.43-1.53-1.1l-1.28-3.79H1.61c-.89,0-1.61-.72-1.61-1.61V1.61C0,.72.72,0,1.61,0h30.41c.57,0,1.09.3,1.38.78l1.72,2.87c.15.25.23.54.23.83v58.36c0,.79-.57,1.46-1.35,1.59-.09.01-.18.02-.26.02ZM3.22,56.35h28.91V4.93l-1.03-1.7H3.22v53.13Z"/>
        <path class="cls-1" d="M33.74,64.46c-.09,0-.18,0-.27-.02-.77-.13-1.34-.8-1.34-1.59V4.48c0-.32.1-.64.28-.91l1.97-2.87c.3-.44.8-.7,1.33-.7h30.16c.89,0,1.61.72,1.61,1.61v56.35c0,.89-.72,1.61-1.61,1.61h-29.29l-1.33,3.8c-.23.66-.84,1.08-1.52,1.08ZM35.35,4.98v51.37s.06,0,.09,0h28.82V3.22h-27.71l-1.2,1.76Z"/>
      </g>
      <g>
        <path class="cls-1" d="M27.02,15.01H8.33c-.89,0-1.61-.72-1.61-1.61s.72-1.61,1.61-1.61h18.69c.89,0,1.61.72,1.61,1.61s-.72,1.61-1.61,1.61Z"/>
        <path class="cls-1" d="M27.02,25.95H8.33c-.89,0-1.61-.72-1.61-1.61s.72-1.61,1.61-1.61h18.69c.89,0,1.61.72,1.61,1.61s-.72,1.61-1.61,1.61Z"/>
        <path class="cls-1" d="M27.02,36.89H8.33c-.89,0-1.61-.72-1.61-1.61s.72-1.61,1.61-1.61h18.69c.89,0,1.61.72,1.61,1.61s-.72,1.61-1.61,1.61Z"/>
      </g>
      <g>
        <path class="cls-1" d="M59.15,15.01h-18.69c-.89,0-1.61-.72-1.61-1.61s.72-1.61,1.61-1.61h18.69c.89,0,1.61.72,1.61,1.61s-.72,1.61-1.61,1.61Z"/>
        <path class="cls-1" d="M59.15,25.95h-18.69c-.89,0-1.61-.72-1.61-1.61s.72-1.61,1.61-1.61h18.69c.89,0,1.61.72,1.61,1.61s-.72,1.61-1.61,1.61Z"/>
        <path class="cls-1" d="M59.15,36.89h-18.69c-.89,0-1.61-.72-1.61-1.61s.72-1.61,1.61-1.61h18.69c.89,0,1.61.72,1.61,1.61s-.72,1.61-1.61,1.61Z"/>
      </g>
    </g>
  </g>
</svg>