<?xml version="1.0" encoding="UTF-8"?>
<svg id="Layer_2" data-name="Layer 2" xmlns="http://www.w3.org/2000/svg" viewBox="0 0 62.46 88.65">
  <defs>
    <style>
      .cls-1 {
        fill: #231f20;
      }
    </style>
  </defs>
  <g id="Layer_1-2" data-name="Layer 1">
    <g>
      <path class="cls-1" d="M31.24,38.43c-10.6,0-19.22-8.62-19.22-19.22S20.64,0,31.24,0s19.22,8.62,19.22,19.22-8.62,19.22-19.22,19.22ZM31.24,3.22c-8.82,0-16,7.18-16,15.99s7.18,16,16,16,16-7.18,16-16-7.18-15.99-16-15.99Z"/>
      <path class="cls-1" d="M60.85,88.65H1.61c-.89,0-1.61-.72-1.61-1.61v-13.2c0-15.39,11.01-28.36,26.17-30.82.49-.07.98.07,1.34.39.36.33.56.8.53,1.29l-1.51,25.32,4.71,3.7,4.71-3.7-1.51-25.32c-.03-.49.17-.96.53-1.29.36-.33.85-.47,1.34-.39,6.46,1.05,12.34,4.07,17.01,8.72,5.9,5.92,9.15,13.76,9.15,22.1v13.2c0,.89-.72,1.61-1.61,1.61ZM3.22,85.43h56.02v-11.59c0-7.48-2.91-14.52-8.2-19.82-3.7-3.69-8.26-6.23-13.26-7.42l1.44,24.08c.03.53-.2,1.04-.61,1.36l-6.37,5c-.58.46-1.4.46-1.99,0l-6.37-5c-.42-.33-.64-.83-.61-1.36l1.44-24.08c-12.56,2.97-21.48,14.12-21.48,27.25v11.59Z"/>
    </g>
  </g>
</svg>