<?xml version="1.0" encoding="UTF-8"?>
<svg id="Layer_2" data-name="Layer 2" xmlns="http://www.w3.org/2000/svg" viewBox="0 0 107.06 54.25">
  <defs>
    <style>
      .cls-1 {
        fill: #231f20;
      }
    </style>
  </defs>
  <g id="Layer_1-2" data-name="Layer 1">
    <g>
      <path class="cls-1" d="M36.22,54.25H1.61c-.89,0-1.61-.72-1.61-1.61v-29.8c0-.89.72-1.61,1.61-1.61h34.61c.89,0,1.61.72,1.61,1.61v29.8c0,.89-.72,1.61-1.61,1.61ZM3.22,51.03h31.4v-26.58H3.22v26.58Z"/>
      <path class="cls-1" d="M105.45,54.25h-34.61c-.89,0-1.61-.72-1.61-1.61V18.02c0-.89.72-1.61,1.61-1.61h34.61c.89,0,1.61.72,1.61,1.61v34.61c0,.89-.72,1.61-1.61,1.61ZM72.45,51.03h31.4v-31.39h-31.4v31.39Z"/>
      <path class="cls-1" d="M70.84,54.25h-34.61c-.89,0-1.61-.72-1.61-1.61V1.61c0-.89.72-1.61,1.61-1.61h34.61c.89,0,1.61.72,1.61,1.61v51.03c0,.89-.72,1.61-1.61,1.61ZM37.83,51.03h31.4V3.22h-31.4v47.81Z"/>
      <path class="cls-1" d="M53.86,31.64v-6.74l-1.71,1.32-1.13-1.54,3.02-2.22h1.99v9.17h-2.18Z"/>
      <path class="cls-1" d="M86.01,38.32v-1.81l3.58-3.24c.45-.43.75-.85.75-1.41,0-.65-.45-1.1-1.14-1.1-.72,0-1.2.57-1.3,1.39l-2.09-.28c.21-1.85,1.71-2.95,3.5-2.95,1.68,0,3.32.89,3.32,2.81,0,1.31-.76,2.07-1.61,2.82l-2.12,1.89h3.74v1.89h-6.63Z"/>
      <path class="cls-1" d="M19.03,43.28c-1.67,0-3.19-.72-3.68-2.44l2.02-.53c.17.61.73,1.14,1.56,1.14.62,0,1.33-.31,1.33-1.17,0-.93-.96-1.2-1.87-1.2h-.58v-1.59h.64c.82,0,1.61-.21,1.61-1.09,0-.66-.56-1.01-1.15-1.01s-1.11.4-1.26,1.02l-2.02-.47c.44-1.54,1.89-2.33,3.42-2.33,1.62,0,3.23.83,3.23,2.59,0,1.01-.65,1.76-1.54,1.99v.04c1.04.25,1.76,1.1,1.76,2.12,0,2.01-1.78,2.91-3.46,2.91Z"/>
    </g>
  </g>
</svg>