<?xml version="1.0" encoding="UTF-8"?>
<svg id="Layer_2" data-name="Layer 2" xmlns="http://www.w3.org/2000/svg" viewBox="0 0 71.7 72.09">
  <defs>
    <style>
      .cls-1 {
        fill: #231f20;
      }
    </style>
  </defs>
  <g id="Layer_1-2" data-name="Layer 1">
    <g>
      <path class="cls-1" d="M35.85,72.09C16.08,72.09,0,56.01,0,36.24,0,23.47,6.87,11.57,17.93,5.19c.77-.45,1.75-.18,2.2.59l15.73,27.24,15.73-27.24c.45-.77,1.43-1.04,2.2-.59,11.06,6.38,17.93,18.28,17.93,31.05,0,19.77-16.08,35.85-35.85,35.85ZM18.16,8.82C8.91,14.79,3.22,25.15,3.22,36.24c0,17.99,14.64,32.63,32.63,32.63s32.63-14.64,32.63-32.63c0-11.09-5.69-21.45-14.94-27.42l-16.3,28.22c-.58,1-2.21,1-2.79,0L18.16,8.82Z"/>
      <path class="cls-1" d="M35.85,26.78c-.58,0-1.11-.31-1.39-.81L21.87,4.17c-.24-.42-.28-.94-.1-1.39.18-.46.56-.81,1.02-.95.54-.17,13.4-4.04,26.14,0,.46.15.84.5,1.01.95.18.45.14.96-.11,1.39l-12.59,21.8c-.29.5-.82.81-1.39.81ZM25.72,4.41l10.13,17.54,10.16-17.6c-8.33-2.09-16.61-.76-20.29.06Z"/>
    </g>
  </g>
</svg>