<?xml version="1.0" encoding="UTF-8"?>
<svg id="Layer_2" data-name="Layer 2" xmlns="http://www.w3.org/2000/svg" viewBox="0 0 92.34 68.48">
  <defs>
    <style>
      .cls-1 {
        fill: #231f20;
      }
    </style>
  </defs>
  <g id="Layer_1-2" data-name="Layer 1">
    <g>
      <path class="cls-1" d="M58.55,24.26c-2.07,0-3.14-1.33-3.85-2.21-.65-.81-.87-1.01-1.34-1.01s-.69.2-1.34,1.01c-.71.88-1.78,2.21-3.85,2.21s-3.14-1.33-3.84-2.21c-.65-.8-.87-1.01-1.33-1.01s-.69.2-1.33,1.01c-.71.88-1.78,2.21-3.84,2.21s-3.13-1.33-3.84-2.21c-.65-.8-.87-1.01-1.33-1.01-.89,0-1.61-.72-1.61-1.61s.72-1.61,1.61-1.61c2.07,0,3.13,1.33,3.84,2.21.65.8.87,1.01,1.33,1.01s.68-.2,1.33-1.01c.71-.88,1.78-2.21,3.84-2.21s3.14,1.33,3.84,2.21c.65.8.87,1.01,1.33,1.01s.69-.2,1.34-1.01c.71-.88,1.78-2.21,3.85-2.21s3.14,1.33,3.85,2.21c.65.81.87,1.01,1.34,1.01.89,0,1.61.72,1.61,1.61s-.72,1.61-1.61,1.61Z"/>
      <path class="cls-1" d="M59.31,36.54c-2.07,0-3.14-1.33-3.85-2.21-.65-.81-.87-1.01-1.34-1.01s-.69.2-1.34,1.01c-.71.88-1.78,2.21-3.85,2.21s-3.13-1.33-3.84-2.21c-.65-.8-.87-1.01-1.33-1.01s-.68.2-1.33,1.01c-.71.88-1.78,2.21-3.84,2.21s-3.13-1.33-3.84-2.21c-.65-.8-.87-1.01-1.33-1.01-.89,0-1.61-.72-1.61-1.61s.72-1.61,1.61-1.61c2.07,0,3.13,1.33,3.84,2.21.65.8.87,1.01,1.33,1.01s.69-.2,1.33-1.01c.71-.88,1.78-2.21,3.84-2.21s3.14,1.33,3.84,2.21c.65.8.87,1.01,1.33,1.01s.69-.2,1.34-1.01c.71-.88,1.78-2.21,3.85-2.21s3.14,1.33,3.85,2.21c.65.81.87,1.01,1.34,1.01.89,0,1.61.72,1.61,1.61s-.72,1.61-1.61,1.61Z"/>
      <path class="cls-1" d="M8.81,59.31c-.16,0-.32-.02-.47-.07-.68-.21-1.14-.83-1.14-1.54v-13.43h-.49c-3.7,0-6.71-3.01-6.71-6.71V6.71C0,3.01,3.01,0,6.71,0h55.01c3.7,0,6.71,3.01,6.71,6.71v30.86c0,3.7-3.01,6.71-6.71,6.71H19.87l-9.73,14.33c-.3.45-.81.71-1.33.71ZM6.71,3.22c-1.92,0-3.49,1.56-3.49,3.49v30.86c0,1.92,1.57,3.49,3.49,3.49h2.1c.89,0,1.61.72,1.61,1.61v9.8l7.27-10.71c.3-.44.8-.71,1.33-.71h42.7c1.92,0,3.49-1.56,3.49-3.49V6.71c0-1.92-1.57-3.49-3.49-3.49H6.71Z"/>
      <path class="cls-1" d="M83.54,68.48c-.52,0-1.03-.26-1.33-.71l-9.73-14.33H30.63c-3.7,0-6.71-3.01-6.71-6.71V15.88c0-3.7,3.01-6.71,6.71-6.71h55.01c3.7,0,6.71,3.01,6.71,6.71v30.86c0,3.7-3.01,6.71-6.71,6.71h-.49v13.43c0,.71-.46,1.33-1.14,1.54-.16.05-.32.07-.47.07ZM30.63,12.39c-1.92,0-3.49,1.56-3.49,3.49v30.86c0,1.92,1.57,3.49,3.49,3.49h42.7c.53,0,1.03.26,1.33.71l7.27,10.7v-9.8c0-.89.72-1.61,1.61-1.61h2.1c1.92,0,3.49-1.56,3.49-3.49V15.88c0-1.92-1.57-3.49-3.49-3.49H30.63Z"/>
    </g>
  </g>
</svg>