<?xml version="1.0" encoding="UTF-8"?>
<svg id="Layer_2" data-name="Layer 2" xmlns="http://www.w3.org/2000/svg" viewBox="0 0 84.53 71.01">
  <defs>
    <style>
      .cls-1 {
        fill: #231f20;
      }
    </style>
  </defs>
  <g id="Layer_1-2" data-name="Layer 1">
    <g>
      <g>
        <path class="cls-1" d="M45.97,71.01h-7.42c-4.87,0-8.82-3.96-8.82-8.83s3.96-8.82,8.82-8.82h7.42c4.87,0,8.82,3.96,8.82,8.82s-3.96,8.83-8.82,8.83ZM38.55,56.58c-3.09,0-5.6,2.51-5.6,5.6s2.51,5.6,5.6,5.6h7.42c3.09,0,5.6-2.51,5.6-5.6s-2.51-5.6-5.6-5.6h-7.42Z"/>
        <path class="cls-1" d="M16.24,71.01h-7.42c-4.87,0-8.82-3.96-8.82-8.83s3.96-8.82,8.82-8.82h7.42c4.87,0,8.82,3.96,8.82,8.82s-3.96,8.83-8.82,8.83ZM8.82,56.58c-3.09,0-5.6,2.51-5.6,5.6s2.51,5.6,5.6,5.6h7.42c3.09,0,5.61-2.51,5.61-5.6s-2.51-5.6-5.61-5.6h-7.42Z"/>
        <path class="cls-1" d="M75.7,71.01h-7.42c-4.87,0-8.82-3.96-8.82-8.83s3.96-8.82,8.82-8.82h7.42c4.87,0,8.82,3.96,8.82,8.82s-3.96,8.83-8.82,8.83ZM68.28,56.58c-3.09,0-5.6,2.51-5.6,5.6s2.51,5.6,5.6,5.6h7.42c3.09,0,5.6-2.51,5.6-5.6s-2.51-5.6-5.6-5.6h-7.42Z"/>
      </g>
      <g>
        <path class="cls-1" d="M51.62,21.26h-18.71c-5.86,0-10.63-4.77-10.63-10.63S27.05,0,32.91,0h18.71c5.86,0,10.63,4.77,10.63,10.63s-4.77,10.63-10.63,10.63ZM32.91,3.22c-4.08,0-7.41,3.32-7.41,7.41s3.32,7.41,7.41,7.41h18.71c4.08,0,7.41-3.32,7.41-7.41s-3.32-7.41-7.41-7.41h-18.71Z"/>
        <g>
          <path class="cls-1" d="M45.97,45.91h-7.42c-4.87,0-8.82-3.96-8.82-8.83s3.96-8.82,8.82-8.82h7.42c4.87,0,8.82,3.96,8.82,8.82s-3.96,8.83-8.82,8.83ZM38.55,31.48c-3.09,0-5.6,2.51-5.6,5.6s2.51,5.6,5.6,5.6h7.42c3.09,0,5.6-2.51,5.6-5.6s-2.51-5.6-5.6-5.6h-7.42Z"/>
          <path class="cls-1" d="M16.24,45.91h-7.42c-4.87,0-8.82-3.96-8.82-8.83s3.96-8.82,8.82-8.82h7.42c4.87,0,8.82,3.96,8.82,8.82s-3.96,8.83-8.82,8.83ZM8.82,31.48c-3.09,0-5.6,2.51-5.6,5.6s2.51,5.6,5.6,5.6h7.42c3.09,0,5.61-2.51,5.61-5.6s-2.51-5.6-5.61-5.6h-7.42Z"/>
          <path class="cls-1" d="M75.7,45.91h-7.42c-4.87,0-8.82-3.96-8.82-8.83s3.96-8.82,8.82-8.82h7.42c4.87,0,8.82,3.96,8.82,8.82s-3.96,8.83-8.82,8.83ZM68.28,31.48c-3.09,0-5.6,2.51-5.6,5.6s2.51,5.6,5.6,5.6h7.42c3.09,0,5.6-2.51,5.6-5.6s-2.51-5.6-5.6-5.6h-7.42Z"/>
        </g>
        <path class="cls-1" d="M42.26,31.48c-.89,0-1.61-.72-1.61-1.61v-10.22c0-.89.72-1.61,1.61-1.61s1.61.72,1.61,1.61v10.22c0,.89-.72,1.61-1.61,1.61Z"/>
        <path class="cls-1" d="M42.26,56.13c-.89,0-1.61-.72-1.61-1.61v-10.22c0-.89.72-1.61,1.61-1.61s1.61.72,1.61,1.61v10.22c0,.89-.72,1.61-1.61,1.61Z"/>
        <path class="cls-1" d="M12.53,56.13c-.89,0-1.61-.72-1.61-1.61v-10.22c0-.89.72-1.61,1.61-1.61s1.61.72,1.61,1.61v10.22c0,.89-.72,1.61-1.61,1.61Z"/>
        <g>
          <path class="cls-1" d="M71.99,12.24h-11.36c-.89,0-1.61-.72-1.61-1.61s.72-1.61,1.61-1.61h11.36c.89,0,1.61.72,1.61,1.61s-.72,1.61-1.61,1.61Z"/>
          <path class="cls-1" d="M71.99,31.48c-.89,0-1.61-.72-1.61-1.61V10.63c0-.89.72-1.61,1.61-1.61s1.61.72,1.61,1.61v19.24c0,.89-.72,1.61-1.61,1.61Z"/>
        </g>
        <g>
          <path class="cls-1" d="M23.89,12.24h-11.36c-.89,0-1.61-.72-1.61-1.61s.72-1.61,1.61-1.61h11.36c.89,0,1.61.72,1.61,1.61s-.72,1.61-1.61,1.61Z"/>
          <path class="cls-1" d="M12.53,31.48c-.89,0-1.61-.72-1.61-1.61V10.63c0-.89.72-1.61,1.61-1.61s1.61.72,1.61,1.61v19.24c0,.89-.72,1.61-1.61,1.61Z"/>
        </g>
      </g>
    </g>
  </g>
</svg>