<?xml version="1.0" encoding="UTF-8"?>
<svg id="Layer_2" data-name="Layer 2" xmlns="http://www.w3.org/2000/svg" viewBox="0 0 100.38 76.35">
  <defs>
    <style>
      .cls-1 {
        fill: #231f20;
      }
    </style>
  </defs>
  <g id="Layer_1-2" data-name="Layer 1">
    <g>
      <g>
        <g>
          <path class="cls-1" d="M23.85,43h-4.83c-.81,0-1.49-.6-1.6-1.4l-.64-4.91c-.97-.3-1.91-.69-2.81-1.18l-3.9,2.99c-.64.49-1.54.43-2.12-.14l-3.41-3.4c-.57-.57-.63-1.48-.14-2.12l3.02-3.94c-.47-.89-.86-1.83-1.15-2.82l-4.88-.65c-.8-.11-1.4-.79-1.4-1.6v-4.82c0-.81.6-1.49,1.4-1.6l4.92-.65c.3-.97.69-1.91,1.18-2.81l-3-3.9c-.49-.64-.43-1.55.14-2.12l3.41-3.41c.57-.57,1.48-.63,2.12-.14l3.94,3.02c.9-.48,1.84-.86,2.81-1.15l.64-4.88c.11-.8.79-1.4,1.6-1.4h4.83c.81,0,1.49.6,1.6,1.4l.64,4.91c.96.29,1.9.69,2.81,1.17l3.9-2.99c.64-.49,1.54-.43,2.12.14l3.41,3.4c.57.57.63,1.48.14,2.12l-3.01,3.93c.48.91.86,1.85,1.15,2.82l4.88.65c.8.11,1.4.79,1.4,1.6v4.82c0,.81-.6,1.49-1.4,1.6l-4.92.65c-.3.97-.69,1.91-1.18,2.81l3,3.9c.49.64.43,1.55-.14,2.12l-3.41,3.41c-.57.57-1.48.63-2.12.14l-3.93-3.02c-.9.47-1.84.86-2.82,1.15l-.64,4.87c-.11.8-.79,1.4-1.6,1.4ZM20.44,39.77h2l.59-4.54c.09-.67.59-1.21,1.25-1.36,1.39-.31,2.7-.85,3.91-1.59.57-.35,1.3-.32,1.83.09l3.66,2.81,1.41-1.41-2.8-3.64c-.41-.54-.44-1.28-.08-1.85.76-1.2,1.31-2.5,1.63-3.88.15-.65.69-1.14,1.36-1.23l4.58-.6v-1.99l-4.55-.6c-.67-.09-1.22-.59-1.36-1.25-.29-1.36-.83-2.67-1.59-3.9-.35-.57-.31-1.3.09-1.83l2.8-3.66-1.41-1.41-3.64,2.79c-.53.41-1.27.44-1.84.08-1.23-.77-2.53-1.32-3.88-1.62-.66-.15-1.16-.69-1.24-1.36l-.6-4.58h-2l-.6,4.55c-.09.67-.59,1.22-1.25,1.36-1.37.3-2.68.83-3.89,1.59-.57.35-1.3.32-1.83-.09l-3.67-2.82-1.41,1.41,2.8,3.64c.41.54.44,1.28.08,1.85-.76,1.2-1.31,2.51-1.63,3.88-.15.66-.69,1.15-1.36,1.23l-4.58.6v2l4.55.6c.67.09,1.21.59,1.36,1.24.32,1.4.85,2.71,1.6,3.89.36.57.32,1.3-.09,1.84l-2.82,3.67,1.41,1.41,3.64-2.79c.54-.41,1.27-.44,1.84-.08,1.2.76,2.51,1.31,3.88,1.63.66.15,1.15.69,1.23,1.36l.6,4.57Z"/>
          <path class="cls-1" d="M21.51,29.57c-4.28,0-7.77-3.49-7.77-7.77s3.49-7.77,7.77-7.77,7.76,3.49,7.76,7.77-3.48,7.77-7.76,7.77ZM21.51,17.26c-2.51,0-4.55,2.04-4.55,4.55s2.04,4.55,4.55,4.55,4.54-2.04,4.54-4.55-2.04-4.55-4.54-4.55Z"/>
        </g>
        <g>
          <path class="cls-1" d="M81.23,43h-4.83c-.81,0-1.49-.6-1.6-1.4l-.64-4.91c-.97-.3-1.91-.69-2.81-1.18l-3.9,2.99c-.64.49-1.54.43-2.12-.14l-3.41-3.4c-.57-.57-.63-1.48-.14-2.12l3.02-3.94c-.47-.89-.86-1.83-1.15-2.82l-4.88-.65c-.8-.11-1.4-.79-1.4-1.6v-4.82c0-.81.6-1.49,1.4-1.6l4.92-.65c.3-.97.69-1.91,1.18-2.81l-3-3.9c-.49-.64-.43-1.55.14-2.12l3.41-3.41c.57-.57,1.48-.63,2.12-.14l3.94,3.02c.9-.48,1.84-.86,2.81-1.15l.64-4.88c.11-.8.79-1.4,1.6-1.4h4.83c.81,0,1.49.6,1.6,1.4l.64,4.91c.96.29,1.9.69,2.81,1.18l3.9-2.99c.64-.49,1.54-.43,2.12.14l3.41,3.4c.57.57.63,1.48.14,2.12l-3.02,3.93c.48.91.86,1.85,1.15,2.82l4.88.65c.8.11,1.4.79,1.4,1.6v4.82c0,.81-.6,1.49-1.4,1.6l-4.92.65c-.3.97-.69,1.91-1.18,2.81l3,3.9c.49.64.43,1.55-.14,2.12l-3.41,3.41c-.57.57-1.48.63-2.12.14l-3.93-3.02c-.9.47-1.84.86-2.82,1.15l-.64,4.87c-.11.8-.79,1.4-1.6,1.4ZM77.81,39.77h2l.6-4.54c.09-.67.59-1.21,1.25-1.36,1.38-.31,2.7-.85,3.91-1.59.57-.35,1.29-.32,1.83.09l3.66,2.81,1.41-1.41-2.8-3.64c-.41-.54-.44-1.28-.08-1.85.76-1.2,1.31-2.51,1.63-3.88.15-.66.69-1.15,1.36-1.23l4.58-.6v-1.99l-4.55-.6c-.67-.09-1.22-.59-1.36-1.25-.3-1.36-.83-2.67-1.59-3.9-.35-.57-.31-1.3.09-1.83l2.81-3.66-1.41-1.41-3.64,2.79c-.54.41-1.27.45-1.84.08-1.23-.77-2.54-1.32-3.88-1.62-.66-.15-1.16-.69-1.24-1.36l-.6-4.58h-2l-.6,4.55c-.09.67-.59,1.22-1.25,1.36-1.37.3-2.68.83-3.89,1.59-.57.35-1.3.32-1.83-.09l-3.67-2.82-1.41,1.41,2.8,3.64c.41.54.44,1.28.08,1.85-.76,1.2-1.31,2.5-1.63,3.88-.15.66-.69,1.15-1.36,1.23l-4.58.6v2l4.55.6c.67.09,1.21.59,1.36,1.24.31,1.4.85,2.71,1.6,3.89.36.57.32,1.3-.09,1.84l-2.82,3.67,1.41,1.41,3.64-2.79c.54-.41,1.27-.44,1.84-.08,1.2.76,2.51,1.31,3.88,1.63.66.15,1.15.69,1.23,1.36l.6,4.57Z"/>
          <path class="cls-1" d="M78.88,29.57c-4.28,0-7.77-3.49-7.77-7.77s3.49-7.77,7.77-7.77,7.76,3.49,7.76,7.77-3.48,7.77-7.76,7.77ZM78.88,17.26c-2.51,0-4.55,2.04-4.55,4.55s2.04,4.55,4.55,4.55,4.54-2.04,4.54-4.55-2.04-4.55-4.54-4.55Z"/>
        </g>
      </g>
      <g>
        <path class="cls-1" d="M52.54,76.35h-4.83c-.81,0-1.49-.6-1.6-1.4l-.64-4.91c-.97-.3-1.91-.69-2.81-1.18l-3.9,2.99c-.64.49-1.54.43-2.12-.14l-3.41-3.4c-.57-.57-.63-1.48-.14-2.12l3.02-3.94c-.47-.89-.86-1.83-1.15-2.82l-4.88-.65c-.8-.11-1.4-.79-1.4-1.6v-4.82c0-.81.6-1.49,1.4-1.6l4.92-.65c.3-.97.69-1.91,1.18-2.81l-3-3.9c-.49-.64-.43-1.55.14-2.12l3.41-3.41c.57-.57,1.48-.63,2.12-.14l3.94,3.02c.9-.48,1.84-.86,2.81-1.15l.64-4.88c.11-.8.79-1.4,1.6-1.4h4.83c.81,0,1.49.6,1.6,1.4l.64,4.91c.96.29,1.9.69,2.81,1.18l3.9-2.99c.64-.49,1.54-.43,2.12.14l3.41,3.4c.57.57.63,1.48.14,2.12l-3.02,3.93c.48.91.87,1.85,1.15,2.82l4.88.65c.8.11,1.4.79,1.4,1.6v4.82c0,.81-.6,1.49-1.4,1.6l-4.92.65c-.3.97-.69,1.91-1.18,2.81l3,3.9c.49.64.43,1.55-.14,2.12l-3.41,3.41c-.57.57-1.48.63-2.12.14l-3.93-3.02c-.9.47-1.84.86-2.82,1.15l-.64,4.87c-.11.8-.79,1.4-1.6,1.4ZM49.12,73.13h2l.59-4.54c.09-.67.59-1.21,1.25-1.36,1.39-.31,2.7-.85,3.91-1.59.57-.35,1.3-.31,1.83.09l3.66,2.81,1.41-1.41-2.8-3.64c-.41-.54-.44-1.28-.08-1.85.76-1.2,1.31-2.51,1.63-3.88.15-.66.69-1.15,1.36-1.23l4.58-.6v-1.99l-4.55-.6c-.67-.09-1.22-.59-1.36-1.25-.29-1.36-.83-2.67-1.59-3.9-.35-.57-.31-1.3.09-1.83l2.81-3.66-1.41-1.41-3.64,2.79c-.53.41-1.27.45-1.84.08-1.23-.77-2.54-1.32-3.88-1.62-.66-.15-1.16-.69-1.24-1.36l-.6-4.58h-2l-.6,4.55c-.09.67-.59,1.22-1.25,1.36-1.37.3-2.67.83-3.89,1.59-.57.35-1.3.32-1.83-.09l-3.67-2.82-1.41,1.41,2.8,3.64c.41.54.44,1.28.08,1.85-.77,1.2-1.31,2.51-1.63,3.88-.15.66-.69,1.15-1.36,1.23l-4.58.61v1.99l4.55.6c.67.09,1.21.59,1.36,1.24.32,1.4.85,2.71,1.6,3.89.36.57.32,1.3-.09,1.84l-2.82,3.67,1.41,1.41,3.64-2.79c.54-.41,1.27-.44,1.84-.08,1.2.76,2.51,1.31,3.88,1.63.66.15,1.15.69,1.23,1.36l.6,4.57Z"/>
        <path class="cls-1" d="M50.19,62.93c-4.28,0-7.77-3.49-7.77-7.77s3.49-7.77,7.77-7.77,7.76,3.49,7.76,7.77-3.48,7.77-7.76,7.77ZM50.19,50.61c-2.51,0-4.55,2.04-4.55,4.55s2.04,4.55,4.55,4.55,4.54-2.04,4.54-4.55-2.04-4.55-4.54-4.55Z"/>
      </g>
    </g>
  </g>
</svg>