<?xml version="1.0" encoding="UTF-8"?>
<svg id="Layer_2" data-name="Layer 2" xmlns="http://www.w3.org/2000/svg" viewBox="0 0 83.72 53.94">
  <defs>
    <style>
      .cls-1 {
        fill: #231f20;
      }
    </style>
  </defs>
  <g id="Layer_1-2" data-name="Layer 1">
    <g>
      <path class="cls-1" d="M82.11,53.94H1.61c-.89,0-1.61-.72-1.61-1.61V1.61C0,.72.72,0,1.61,0h80.5c.89,0,1.61.72,1.61,1.61v50.72c0,.89-.72,1.61-1.61,1.61ZM3.22,50.72h77.28V3.22H3.22v47.49Z"/>
      <path class="cls-1" d="M41.86,43.97c-.35,0-.69-.11-.98-.33L.69,12.85c-.55-.42-.77-1.14-.55-1.8.22-.65.84-1.09,1.53-1.09h80.39c.69,0,1.3.44,1.53,1.09.22.66,0,1.38-.55,1.8l-40.19,30.79c-.29.22-.63.33-.98.33ZM6.42,13.18l35.44,27.15,35.44-27.15H6.42Z"/>
      <path class="cls-1" d="M27.45,42.99c-.41,0-.82-.16-1.14-.47-.63-.63-.63-1.65,0-2.28l28.82-28.82c.63-.63,1.65-.63,2.28,0,.63.63.63,1.65,0,2.28l-28.82,28.82c-.31.31-.73.47-1.14.47Z"/>
      <path class="cls-1" d="M56.21,42.93c-.41,0-.82-.16-1.14-.47L26.37,13.76c-.63-.63-.63-1.65,0-2.28.63-.63,1.65-.63,2.28,0l28.7,28.7c.63.63.63,1.65,0,2.28-.31.31-.73.47-1.14.47Z"/>
    </g>
  </g>
</svg>